<svg xmlns="http://www.w3.org/2000/svg" width="1000" height="620">
<rect width="100%" height="100%" fill="white"/>
<text x="500.0" y="32" font-size="20" text-anchor="middle" font-family="Arial" font-weight="bold">Attacker Win Rate by Graph Type</text>
<text x="22" y="310.0" font-size="13" text-anchor="middle" font-family="Arial" font-weight="normal" transform="rotate(-90 22 310.0)">Attacker win rate</text>
<line x1="90" y1="70" x2="90" y2="470" stroke="#333"/>
<line x1="90" y1="470" x2="970" y2="470" stroke="#333"/>
<line x1="90" y1="470.0" x2="970" y2="470.0" stroke="#eee"/>
<text x="80" y="474.0" font-size="11" text-anchor="end" font-family="Arial" font-weight="normal">0%</text>
<line x1="90" y1="390.0" x2="970" y2="390.0" stroke="#eee"/>
<text x="80" y="394.0" font-size="11" text-anchor="end" font-family="Arial" font-weight="normal">20%</text>
<line x1="90" y1="310.0" x2="970" y2="310.0" stroke="#eee"/>
<text x="80" y="314.0" font-size="11" text-anchor="end" font-family="Arial" font-weight="normal">40%</text>
<line x1="90" y1="230.0" x2="970" y2="230.0" stroke="#eee"/>
<text x="80" y="234.0" font-size="11" text-anchor="end" font-family="Arial" font-weight="normal">60%</text>
<line x1="90" y1="150.0" x2="970" y2="150.0" stroke="#eee"/>
<text x="80" y="154.0" font-size="11" text-anchor="end" font-family="Arial" font-weight="normal">80%</text>
<line x1="90" y1="70.0" x2="970" y2="70.0" stroke="#eee"/>
<text x="80" y="74.0" font-size="11" text-anchor="end" font-family="Arial" font-weight="normal">100%</text>
<rect x="114.64" y="201.25" width="126.72" height="268.75" fill="#d95f02" stroke="#222"/>
<text x="178.0" y="193.25" font-size="11" text-anchor="middle" font-family="Arial" font-weight="normal">67%</text>
<text x="178.0" y="498" font-size="11" text-anchor="middle" font-family="Arial" font-weight="normal" transform="rotate(-30 178.0 498)">Erdos-Renyi G(n,p)</text>
<rect x="290.64" y="165.83333333333337" width="126.72" height="304.16666666666663" fill="#d95f02" stroke="#222"/>
<text x="354.0" y="157.83333333333337" font-size="11" text-anchor="middle" font-family="Arial" font-weight="normal">76%</text>
<text x="354.0" y="498" font-size="11" text-anchor="middle" font-family="Arial" font-weight="normal" transform="rotate(-30 354.0 498)">Fixed edge count G(n,m)</text>
<rect x="466.64" y="188.75" width="126.72" height="281.25" fill="#d95f02" stroke="#222"/>
<text x="530.0" y="180.75" font-size="11" text-anchor="middle" font-family="Arial" font-weight="normal">70%</text>
<text x="530.0" y="498" font-size="11" text-anchor="middle" font-family="Arial" font-weight="normal" transform="rotate(-30 530.0 498)">Geometric</text>
<rect x="642.64" y="174.16666666666663" width="126.72" height="295.83333333333337" fill="#d95f02" stroke="#222"/>
<text x="706.0" y="166.16666666666663" font-size="11" text-anchor="middle" font-family="Arial" font-weight="normal">74%</text>
<text x="706.0" y="498" font-size="11" text-anchor="middle" font-family="Arial" font-weight="normal" transform="rotate(-30 706.0 498)">Grid / lattice</text>
<rect x="818.64" y="232.5" width="126.72" height="237.5" fill="#d95f02" stroke="#222"/>
<text x="882.0" y="224.5" font-size="11" text-anchor="middle" font-family="Arial" font-weight="normal">59%</text>
<text x="882.0" y="498" font-size="11" text-anchor="middle" font-family="Arial" font-weight="normal" transform="rotate(-30 882.0 498)">Scale-free (Barabasi-Albert)</text>
</svg>