<svg xmlns="http://www.w3.org/2000/svg" width="1000" height="620">
<rect width="100%" height="100%" fill="white"/>
<text x="500.0" y="32" font-size="20" text-anchor="middle" font-family="Arial" font-weight="bold">Attacker Win Rate by Defender Strategy</text>
<text x="22" y="310.0" font-size="13" text-anchor="middle" font-family="Arial" font-weight="normal" transform="rotate(-90 22 310.0)">Attacker win rate</text>
<line x1="90" y1="70" x2="90" y2="470" stroke="#333"/>
<line x1="90" y1="470" x2="970" y2="470" stroke="#333"/>
<line x1="90" y1="470.0" x2="970" y2="470.0" stroke="#eee"/>
<text x="80" y="474.0" font-size="11" text-anchor="end" font-family="Arial" font-weight="normal">0%</text>
<line x1="90" y1="390.0" x2="970" y2="390.0" stroke="#eee"/>
<text x="80" y="394.0" font-size="11" text-anchor="end" font-family="Arial" font-weight="normal">20%</text>
<line x1="90" y1="310.0" x2="970" y2="310.0" stroke="#eee"/>
<text x="80" y="314.0" font-size="11" text-anchor="end" font-family="Arial" font-weight="normal">40%</text>
<line x1="90" y1="230.0" x2="970" y2="230.0" stroke="#eee"/>
<text x="80" y="234.0" font-size="11" text-anchor="end" font-family="Arial" font-weight="normal">60%</text>
<line x1="90" y1="150.0" x2="970" y2="150.0" stroke="#eee"/>
<text x="80" y="154.0" font-size="11" text-anchor="end" font-family="Arial" font-weight="normal">80%</text>
<line x1="90" y1="70.0" x2="970" y2="70.0" stroke="#eee"/>
<text x="80" y="74.0" font-size="11" text-anchor="end" font-family="Arial" font-weight="normal">100%</text>
<rect x="120.8" y="256.66666666666663" width="158.4" height="213.33333333333334" fill="#d95f02" stroke="#222"/>
<text x="200.0" y="248.66666666666663" font-size="11" text-anchor="middle" font-family="Arial" font-weight="normal">53%</text>
<text x="200.0" y="498" font-size="11" text-anchor="middle" font-family="Arial" font-weight="normal" transform="rotate(-30 200.0 498)">Centrality</text>
<rect x="340.8" y="249.99999999999997" width="158.4" height="220.00000000000003" fill="#d95f02" stroke="#222"/>
<text x="420.0" y="241.99999999999997" font-size="11" text-anchor="middle" font-family="Arial" font-weight="normal">55%</text>
<text x="420.0" y="498" font-size="11" text-anchor="middle" font-family="Arial" font-weight="normal" transform="rotate(-30 420.0 498)">Greedy</text>
<rect x="560.8" y="126.66666666666669" width="158.4" height="343.3333333333333" fill="#d95f02" stroke="#222"/>
<text x="640.0" y="118.66666666666669" font-size="11" text-anchor="middle" font-family="Arial" font-weight="normal">86%</text>
<text x="640.0" y="498" font-size="11" text-anchor="middle" font-family="Arial" font-weight="normal" transform="rotate(-30 640.0 498)">None</text>
<rect x="780.8" y="136.66666666666663" width="158.4" height="333.33333333333337" fill="#d95f02" stroke="#222"/>
<text x="860.0" y="128.66666666666663" font-size="11" text-anchor="middle" font-family="Arial" font-weight="normal">83%</text>
<text x="860.0" y="498" font-size="11" text-anchor="middle" font-family="Arial" font-weight="normal" transform="rotate(-30 860.0 498)">Random</text>
</svg>