<svg xmlns="http://www.w3.org/2000/svg" width="1000" height="620">
<rect width="100%" height="100%" fill="white"/>
<text x="500.0" y="32" font-size="20" text-anchor="middle" font-family="Arial" font-weight="bold">Final Damage Ratio by Number of Nodes</text>
<text x="22" y="310.0" font-size="13" text-anchor="middle" font-family="Arial" font-weight="normal" transform="rotate(-90 22 310.0)">Mean final damage ratio</text>
<line x1="90" y1="70" x2="90" y2="530" stroke="#333"/>
<line x1="90" y1="530" x2="820" y2="530" stroke="#333"/>
<text x="90.0" y="558" font-size="11" text-anchor="middle" font-family="Arial" font-weight="normal">5</text>
<text x="820.0" y="558" font-size="11" text-anchor="middle" font-family="Arial" font-weight="normal">10</text>
<circle cx="90.0" cy="194.44674328132106" r="4" fill="#1b9e77"/>
<circle cx="820.0" cy="266.79005039559644" r="4" fill="#1b9e77"/>
<polyline points="90.0,194.44674328132106 820.0,266.79005039559644" fill="none" stroke="#1b9e77" stroke-width="3"/>
<rect x="850" y="59" width="14" height="14" fill="#1b9e77"/>
<text x="872" y="70" font-size="12" text-anchor="start" font-family="Arial" font-weight="normal">Centrality</text>
<circle cx="90.0" cy="193.33562382231753" r="4" fill="#d95f02"/>
<circle cx="820.0" cy="249.48286185005418" r="4" fill="#d95f02"/>
<polyline points="90.0,193.33562382231753 820.0,249.48286185005418" fill="none" stroke="#d95f02" stroke-width="3"/>
<rect x="850" y="83" width="14" height="14" fill="#d95f02"/>
<text x="872" y="94" font-size="12" text-anchor="start" font-family="Arial" font-weight="normal">Greedy</text>
<circle cx="90.0" cy="70.0" r="4" fill="#7570b3"/>
<circle cx="820.0" cy="175.33470254670908" r="4" fill="#7570b3"/>
<polyline points="90.0,70.0 820.0,175.33470254670908" fill="none" stroke="#7570b3" stroke-width="3"/>
<rect x="850" y="107" width="14" height="14" fill="#7570b3"/>
<text x="872" y="118" font-size="12" text-anchor="start" font-family="Arial" font-weight="normal">None</text>
<circle cx="90.0" cy="83.30148180561002" r="4" fill="#e7298a"/>
<circle cx="820.0" cy="184.63298718899927" r="4" fill="#e7298a"/>
<polyline points="90.0,83.30148180561002 820.0,184.63298718899927" fill="none" stroke="#e7298a" stroke-width="3"/>
<rect x="850" y="131" width="14" height="14" fill="#e7298a"/>
<text x="872" y="142" font-size="12" text-anchor="start" font-family="Arial" font-weight="normal">Random</text>
</svg>