<svg xmlns="http://www.w3.org/2000/svg" width="1000" height="620">
<rect width="100%" height="100%" fill="white"/>
<text x="500.0" y="32" font-size="20" text-anchor="middle" font-family="Arial" font-weight="bold">Final Damage Ratio by Number of Edges</text>
<text x="22" y="310.0" font-size="13" text-anchor="middle" font-family="Arial" font-weight="normal" transform="rotate(-90 22 310.0)">Mean final damage ratio</text>
<line x1="90" y1="70" x2="90" y2="530" stroke="#333"/>
<line x1="90" y1="530" x2="820" y2="530" stroke="#333"/>
<text x="90.0" y="558" font-size="11" text-anchor="middle" font-family="Arial" font-weight="normal">4</text>
<text x="181.25" y="558" font-size="11" text-anchor="middle" font-family="Arial" font-weight="normal">5</text>
<text x="272.5" y="558" font-size="11" text-anchor="middle" font-family="Arial" font-weight="normal">9</text>
<text x="363.75" y="558" font-size="11" text-anchor="middle" font-family="Arial" font-weight="normal">11</text>
<text x="455.0" y="558" font-size="11" text-anchor="middle" font-family="Arial" font-weight="normal">13</text>
<text x="546.25" y="558" font-size="11" text-anchor="middle" font-family="Arial" font-weight="normal">15</text>
<text x="637.5" y="558" font-size="11" text-anchor="middle" font-family="Arial" font-weight="normal">16</text>
<text x="728.75" y="558" font-size="11" text-anchor="middle" font-family="Arial" font-weight="normal">19</text>
<text x="820.0" y="558" font-size="11" text-anchor="middle" font-family="Arial" font-weight="normal">21</text>
<circle cx="90.0" cy="185.3407561720408" r="4" fill="#1b9e77"/>
<circle cx="181.25" cy="218.94708963045395" r="4" fill="#1b9e77"/>
<circle cx="272.5" cy="265.27411883442886" r="4" fill="#1b9e77"/>
<circle cx="363.75" cy="278.51041289270745" r="4" fill="#1b9e77"/>
<circle cx="455.0" cy="248.83380121442417" r="4" fill="#1b9e77"/>
<circle cx="546.25" cy="265.27411883442886" r="4" fill="#1b9e77"/>
<circle cx="637.5" cy="275.86315408105173" r="4" fill="#1b9e77"/>
<circle cx="728.75" cy="265.27411883442886" r="4" fill="#1b9e77"/>
<circle cx="820.0" cy="302.3042272117558" r="4" fill="#1b9e77"/>
<polyline points="90.0,185.3407561720408 181.25,218.94708963045395 272.5,265.27411883442886 363.75,278.51041289270745 455.0,248.83380121442417 546.25,265.27411883442886 637.5,275.86315408105173 728.75,265.27411883442886 820.0,302.3042272117558" fill="none" stroke="#1b9e77" stroke-width="3"/>
<rect x="850" y="59" width="14" height="14" fill="#1b9e77"/>
<text x="872" y="70" font-size="12" text-anchor="start" font-family="Arial" font-weight="normal">Centrality</text>
<circle cx="90.0" cy="189.83085114642103" r="4" fill="#d95f02"/>
<circle cx="181.25" cy="224.24160725376532" r="4" fill="#d95f02"/>
<circle cx="272.5" cy="212.32894260131462" r="4" fill="#d95f02"/>
<circle cx="363.75" cy="180.40611575487816" r="4" fill="#d95f02"/>
<circle cx="455.0" cy="237.01568151953256" r="4" fill="#d95f02"/>
<circle cx="546.25" cy="265.27411883442886" r="4" fill="#d95f02"/>
<circle cx="637.5" cy="278.51041289270745" r="4" fill="#d95f02"/>
<circle cx="728.75" cy="238.8015307178718" r="4" fill="#d95f02"/>
<circle cx="820.0" cy="294.58305567775994" r="4" fill="#d95f02"/>
<polyline points="90.0,189.83085114642103 181.25,224.24160725376532 272.5,212.32894260131462 363.75,180.40611575487816 455.0,237.01568151953256 546.25,265.27411883442886 637.5,278.51041289270745 728.75,238.8015307178718 820.0,294.58305567775994" fill="none" stroke="#d95f02" stroke-width="3"/>
<rect x="850" y="83" width="14" height="14" fill="#d95f02"/>
<text x="872" y="94" font-size="12" text-anchor="start" font-family="Arial" font-weight="normal">Greedy</text>
<circle cx="90.0" cy="70.0" r="4" fill="#7570b3"/>
<circle cx="181.25" cy="76.98783585541645" r="4" fill="#7570b3"/>
<circle cx="272.5" cy="132.91117825164332" r="4" fill="#7570b3"/>
<circle cx="363.75" cy="174.1772714921588" r="4" fill="#7570b3"/>
<circle cx="455.0" cy="219.62991432393653" r="4" fill="#7570b3"/>
<circle cx="546.25" cy="106.4385901350862" r="4" fill="#7570b3"/>
<circle cx="637.5" cy="138.86751057786864" r="4" fill="#7570b3"/>
<circle cx="728.75" cy="132.91117825164332" r="4" fill="#7570b3"/>
<circle cx="820.0" cy="231.2379341131412" r="4" fill="#7570b3"/>
<polyline points="90.0,70.0 181.25,76.98783585541645 272.5,132.91117825164332 363.75,174.1772714921588 455.0,219.62991432393653 546.25,106.4385901350862 637.5,138.86751057786864 728.75,132.91117825164332 820.0,231.2379341131412" fill="none" stroke="#7570b3" stroke-width="3"/>
<rect x="850" y="107" width="14" height="14" fill="#7570b3"/>
<text x="872" y="118" font-size="12" text-anchor="start" font-family="Arial" font-weight="normal">None</text>
<circle cx="90.0" cy="90.85903938719531" r="4" fill="#e7298a"/>
<circle cx="181.25" cy="82.61326083018486" r="4" fill="#e7298a"/>
<circle cx="272.5" cy="106.4385901350862" r="4" fill="#e7298a"/>
<circle cx="363.75" cy="189.74938214895712" r="4" fill="#e7298a"/>
<circle cx="455.0" cy="211.38349302572334" r="4" fill="#e7298a"/>
<circle cx="546.25" cy="159.38376636820044" r="4" fill="#e7298a"/>
<circle cx="637.5" cy="159.38376636820044" r="4" fill="#e7298a"/>
<circle cx="728.75" cy="132.91117825164332" r="4" fill="#e7298a"/>
<circle cx="820.0" cy="234.5470076277108" r="4" fill="#e7298a"/>
<polyline points="90.0,90.85903938719531 181.25,82.61326083018486 272.5,106.4385901350862 363.75,189.74938214895712 455.0,211.38349302572334 546.25,159.38376636820044 637.5,159.38376636820044 728.75,132.91117825164332 820.0,234.5470076277108" fill="none" stroke="#e7298a" stroke-width="3"/>
<rect x="850" y="131" width="14" height="14" fill="#e7298a"/>
<text x="872" y="142" font-size="12" text-anchor="start" font-family="Arial" font-weight="normal">Random</text>
</svg>